<svg xmlns="http://www.w3.org/2000/svg" version="1.1" xmlns:xlink="http://www.w3.org/1999/xlink" width="1000" height="1000"><g clip-path="url(#SvgjsClipPath1454)"><rect width="1000" height="1000" fill="#6a462f"></rect><g transform="matrix(1.7578125,0,0,1.7578125,50,50)"><svg xmlns="http://www.w3.org/2000/svg" version="1.1" xmlns:xlink="http://www.w3.org/1999/xlink" width="512" height="512"><svg width="512" height="512" viewBox="0 0 512 512" xmlns="http://www.w3.org/2000/svg">
    <path id="Rectangle" fill="#6a462f" fill-rule="evenodd" stroke="none" visibility="hidden" d="M 0 512 L 512 512 L 512 0 L 0 0 Z"></path>
    <g id="Cool-Potato">
        <g id="potatocolor">
            <radialGradient id="radialGradient1" cx="384.418451" cy="148.104112" r="353.072499" fx="384.418451" fy="148.104112" gradientUnits="userSpaceOnUse">
                <stop offset="1e-05" stop-color="#ffe7bb" stop-opacity="1"></stop>
                <stop offset="0.399343" stop-color="#eab994" stop-opacity="1"></stop>
                <stop offset="0.657157" stop-color="#dd977f" stop-opacity="1"></stop>
                <stop offset="0.78124" stop-color="#d27e76" stop-opacity="1"></stop>
                <stop offset="0.885055" stop-color="#c96a6f" stop-opacity="1"></stop>
            </radialGradient>
            <path id="Path" fill="url(#radialGradient1)" stroke="none" d="M 333.839935 97.153168 C 282.809418 73.095978 221.815857 88.648102 188.524536 134.089539 L 124.857666 220.84198 C 76.864708 286.209625 100.557434 379.15802 173.944153 413.664368 C 238.704514 444.161194 315.736267 415.9729 345.74707 351.091248 L 390.824005 253.404297 C 417.918762 194.597748 392.524994 124.855469 333.839935 97.153168 Z"></path>
            <linearGradient id="linearGradient1" x1="121.672153" y1="167.848054" x2="234.060743" y2="217.967289" gradientUnits="userSpaceOnUse">
                <stop offset="1e-05" stop-color="#ab8261" stop-opacity="1"></stop>
                <stop offset="1" stop-color="#ae8462" stop-opacity="0"></stop>
            </linearGradient>
            <path id="path1" fill="url(#linearGradient1)" stroke="none" d="M 333.839935 97.153168 C 282.809418 73.095978 221.815857 88.648102 188.524536 134.089539 L 124.857666 220.84198 C 76.864708 286.209625 100.557434 379.15802 173.944153 413.664368 C 238.704514 444.161194 315.736267 415.9729 345.74707 351.091248 L 390.824005 253.404297 C 417.918762 194.597748 392.524994 124.855469 333.839935 97.153168 Z"></path>
            <radialGradient id="radialGradient2" cx="159.641271" cy="280.616942" r="29.713792" fx="159.641271" fy="280.616942" gradientUnits="userSpaceOnUse">
                <stop offset="1e-05" stop-color="#bb8056" stop-opacity="1"></stop>
                <stop offset="1" stop-color="#b0693c" stop-opacity="1"></stop>
            </radialGradient>
            <path id="path3" fill="url(#radialGradient2)" stroke="none" d="M 171.281204 292.38678 C 181.419159 292.38678 189.637466 284.226746 189.637466 274.161591 C 189.637466 264.096436 181.419159 255.936401 171.281204 255.936401 C 161.143616 255.936401 152.925537 264.096436 152.925537 274.161591 C 152.925537 284.226746 161.143616 292.38678 171.281204 292.38678 Z"></path>
            <radialGradient id="radialGradient3" cx="182.803041" cy="361.86964" r="17.187254" fx="182.803041" fy="361.86964" gradientUnits="userSpaceOnUse">
                <stop offset="1e-05" stop-color="#c5805e" stop-opacity="1"></stop>
                <stop offset="1" stop-color="#b9663b" stop-opacity="1"></stop>
            </radialGradient>
            <path id="path4" fill="url(#radialGradient3)" stroke="none" d="M 189.636261 366.055359 C 196.765945 366.055359 202.545776 360.275543 202.545776 353.144653 C 202.545776 346.014954 196.765945 340.235138 189.636261 340.235138 C 182.505371 340.235138 176.725906 346.014954 176.725906 353.144653 C 176.725906 360.275543 182.505371 366.055359 189.636261 366.055359 Z"></path>
            <radialGradient id="radialGradient4" cx="343.411803" cy="252.898878" r="19.047169" fx="343.411803" fy="252.898878" gradientUnits="userSpaceOnUse">
                <stop offset="0.05633" stop-color="#dc9b66" stop-opacity="1"></stop>
                <stop offset="0.852005" stop-color="#ca7544" stop-opacity="1"></stop>
            </radialGradient>
            <path id="path5" fill="url(#radialGradient4)" stroke="none" d="M 341.690125 255.287567 C 347.276764 258.514648 354.796478 255.955841 358.48526 249.570953 C 362.174042 243.186066 360.634583 235.392975 355.047974 232.164673 C 349.460144 228.937653 341.94043 231.496429 338.251648 237.881317 C 334.562866 244.266235 336.102264 252.059326 341.690125 255.287567 Z"></path>
            <radialGradient id="radialGradient5" cx="278.484004" cy="140.54443" r="33.804417" fx="278.484004" fy="140.54443" gradientUnits="userSpaceOnUse">
                <stop offset="0.05633" stop-color="#dc9b66" stop-opacity="1"></stop>
                <stop offset="0.852005" stop-color="#c97c34" stop-opacity="1"></stop>
            </radialGradient>
            <path id="path6" fill="url(#radialGradient5)" stroke="none" d="M 293.510071 158.551514 C 303.456146 158.551514 311.517761 150.489441 311.517761 140.544434 C 311.517761 130.599335 303.456146 122.537231 293.510071 122.537231 C 283.565186 122.537231 275.503571 130.599335 275.503571 140.544434 C 275.503571 150.489441 283.565186 158.551514 293.510071 158.551514 Z"></path>
        </g>
        <g id="smilingfacewithsunglassescolor">
            <linearGradient id="linearGradient2" x1="52.987508" y1="173.350679" x2="501.798128" y2="339.742032" gradientUnits="userSpaceOnUse">
                <stop offset="1e-05" stop-color="#222222" stop-opacity="1"></stop>
                <stop offset="1" stop-color="#000000" stop-opacity="1"></stop>
            </linearGradient>
            <path id="path8" fill="none" stroke="url(#linearGradient2)" stroke-width="13.31642" stroke-linecap="round" stroke-linejoin="round" opacity="0.902823" d="M 236.358643 266.957062 C 236.358643 266.957062 248.669159 284.523438 277.392822 284.523438 C 306.116455 284.523438 318.426971 266.957062 318.426971 266.957062"></path>
        </g>
        <g id="emojiu1f576">
            <g id="Group" opacity="0.950693">
                <linearGradient id="linearGradient3" x1="243.170587" y1="218.931106" x2="175.185622" y2="171.703403" gradientUnits="userSpaceOnUse">
                    <stop offset="1e-05" stop-color="#131815" stop-opacity="1"></stop>
                    <stop offset="1" stop-color="#052004" stop-opacity="1"></stop>
                </linearGradient>
                <path id="path9" fill="url(#linearGradient3)" stroke="none" opacity="0.950693" d="M 251.184097 171.419434 C 248.883789 167.600464 244.104492 159.627563 209.756134 158.711884 C 186.21701 157.907898 172.504471 160.788849 167.747513 167.578156 C 165.670532 170.838776 163.615875 178.74472 165.62587 197.884186 C 169.109833 229.887573 185.189682 230.736237 205.579849 231.785919 L 207.120834 231.875214 C 209.331802 231.986877 211.408783 232.053894 213.3741 232.053894 C 242.273178 232.053894 247.320465 219.435669 251.027771 201.948822 C 254.333069 187.052643 254.40007 176.801697 251.184097 171.419434 Z"></path>
                <linearGradient id="linearGradient4" x1="378.37565" y1="218.894275" x2="310.381038" y2="171.694741" gradientUnits="userSpaceOnUse">
                    <stop offset="1e-05" stop-color="#131815" stop-opacity="1"></stop>
                    <stop offset="1" stop-color="#052004" stop-opacity="1"></stop>
                </linearGradient>
                <path id="path10" fill="url(#linearGradient4)" stroke="none" opacity="0.950693" d="M 385.76355 167.4888 C 381.073578 160.76651 367.361053 157.907898 343.821899 158.711884 C 309.451233 159.649872 304.671967 167.600464 302.371643 171.419434 L 302.371643 171.419434 C 299.15567 176.801697 299.200348 187.052643 302.550293 201.881836 C 306.279938 219.41333 311.304901 232.009247 340.203979 232.009247 C 342.169281 232.009247 344.268616 231.94223 346.457245 231.830566 L 347.99823 231.741241 C 368.366028 230.691559 384.468231 229.842896 387.952179 197.839539 C 389.93985 178.74472 387.885193 170.838776 385.76355 167.4888 Z"></path>
            </g>
            <linearGradient id="linearGradient5" x1="210.001813" y1="156.60667" x2="344.00058" y2="234.157368" gradientUnits="userSpaceOnUse">
                <stop offset="1e-05" stop-color="#1f1f1f" stop-opacity="1"></stop>
                <stop offset="1" stop-color="#000000" stop-opacity="1"></stop>
            </linearGradient>
            <path id="path11" fill="url(#linearGradient5)" stroke="none" d="M 410.553345 159.292542 C 410.553345 159.292542 408.320007 155.495911 368.053375 151.676941 C 325.776733 147.657013 304.738922 156.143585 296.029022 161.525848 C 294.465698 162.195862 291.785736 162.865845 288.636749 162.642517 L 287.966766 162.642517 C 283.72348 162.41922 279.90451 162.195862 275.437866 162.195862 L 275.214569 162.195862 C 272.757904 162.195862 267.37561 162.41922 263.578979 162.642517 C 261.792328 162.865845 260.229004 162.642517 258.889008 162.195862 C 250.826782 156.835907 229.811279 147.433655 185.748016 151.676941 C 145.459045 155.495911 143.225739 159.292542 143.225739 159.292542 L 143.002396 174.501404 C 143.002396 174.501404 149.032349 176.288055 152.851318 180.978027 C 156.647949 185.667969 158.434586 212.51239 164.933548 225.04129 C 174.760117 244.515778 223.312332 239.602509 223.312332 239.602509 C 223.312332 239.602509 243.211166 241.165802 252.836731 224.393646 C 261.122345 210.078094 264.472321 189.933594 265.365631 185.020294 C 267.37561 183.010315 271.172241 180.553711 276.777863 180.330353 C 283.031128 180.330353 287.073425 183.457001 288.860107 185.690338 C 289.753418 191.720276 293.103363 210.748077 301.165649 224.393646 C 310.791229 241.165802 330.690033 239.602509 330.690033 239.602509 C 330.690033 239.602509 379.242279 244.515778 389.068848 225.063629 C 395.322144 212.534729 397.131134 185.690338 401.151062 181.000336 C 404.947723 176.087067 411 174.523773 411 174.523773 L 410.553345 159.292542 Z M 248.816788 201.43515 C 245.020142 219.324005 240.084534 231.406219 207.210144 229.619568 C 185.94902 228.50293 171.186813 228.50293 167.836853 197.638519 C 165.826874 178.409729 168.060165 171.240784 169.623489 168.784119 C 171.186813 166.550812 176.792435 159.828522 209.666809 160.94519 C 242.541168 161.838501 247.253464 169.230774 249.263458 172.58075 C 251.273422 175.930725 252.836731 183.546326 248.816788 201.43515 Z M 385.718903 197.638519 C 382.368927 228.50293 367.60672 228.50293 346.345581 229.619568 C 313.471191 231.406219 308.535583 219.324005 304.738922 201.43515 C 300.718994 183.546326 302.282318 175.930725 304.292297 172.58075 C 306.302277 169.230774 311.014557 161.838501 343.888916 160.94519 C 376.763306 159.828522 382.368927 166.528503 383.93222 168.784119 C 385.495575 171.240784 387.728882 178.38736 385.718903 197.638519 Z"></path>
            <linearGradient id="linearGradient6" x1="175.207934" y1="179.88397" x2="206.11371" y2="179.88397" gradientUnits="userSpaceOnUse">
                <stop offset="1e-05" stop-color="#68686f" stop-opacity="1"></stop>
                <stop offset="1" stop-color="#8e8e93" stop-opacity="1"></stop>
            </linearGradient>
            <path id="path12" fill="url(#linearGradient6)" stroke="none" opacity="0.396742" d="M 193.966614 169.074463 C 203.636856 167.198486 206.897491 171.888397 205.959503 176.087067 C 204.239853 183.83667 196.780579 179.705017 185.85968 186.360291 C 181.259048 189.174286 179.383087 191.184235 177.68576 191.117249 C 176.055435 191.050232 174.648453 189.375275 175.430115 186.203979 C 176.837097 180.442017 179.182083 171.933105 193.966614 169.074463 Z"></path>
            <linearGradient id="linearGradient7" x1="310.915347" y1="180.517627" x2="337.309736" y2="180.517627" gradientUnits="userSpaceOnUse">
                <stop offset="1e-05" stop-color="#68686f" stop-opacity="1"></stop>
                <stop offset="1" stop-color="#8e8e93" stop-opacity="1"></stop>
            </linearGradient>
            <path id="path13" fill="url(#linearGradient7)" stroke="none" opacity="0.396742" d="M 320.908142 171.285431 C 324.861115 169.074463 335.960663 167.086823 337.144318 172.915741 C 338.350311 178.923401 332.700012 180.575989 328.702393 181.938324 C 319.255493 185.154297 317.692169 189.732605 315.726837 190.983276 C 314.40918 191.809601 310.523224 193.685608 310.94754 187.990631 C 311.438904 180.754669 313.806213 175.283081 320.908142 171.285431 Z"></path>
        </g>
    </g>
</svg></svg></g></g><defs><clipPath id="SvgjsClipPath1454"><rect width="1000" height="1000" x="0" y="0" rx="100" ry="100"></rect></clipPath></defs></svg>